# xmcd
#
# Track frame offsets: 
#        150
#        14982
#        31426
#        48187
#        73425
#        87307
#        112478
#        129950
#        152273
#        167489
#        190233
#
# Disc length: 2797 seconds
#
# Revision: 0
# Processed by: cddbd v1.5.2PL0 Copyright (c) Steve Scherf et al.
# Submitted via: ExactAudioCopy v0.95b3
#
DISCID=970aeb0b
DTITLE=Jimmy Griswold - Get To Work 
DYEAR=2003
DGENRE=Blues
TTITLE0=Get To Work
TTITLE1=Con Game
TTITLE2=Mad River Mama
TTITLE3=Buchanan's Train
TTITLE4=The Boy Ain't Right
TTITLE5=Less Than Nothing
TTITLE6=I Hate This Business
TTITLE7=Man Of Motion
TTITLE8=One Step
TTITLE9=Con-Fused
TTITLE10=Sleeper
EXTD=2003 - see his website for more info\n\n
EXTT0=
EXTT1=
EXTT2=
EXTT3=
EXTT4=
EXTT5=
EXTT6=
EXTT7=
EXTT8=
EXTT9=
EXTT10=
PLAYORDER=
